999
FreeCAD v0.19 24276 (Git)
  0
SECTION
  2
HEADER
  9
$ACADVER
  1
AC1014
  9
$ACADMAINTVER
 70
     9
  9
$DWGCODEPAGE
  3
ANSI_1252
  9
$TEXTSTYLE
  7
STANDARD
  9
$DIMSTYLE
  2
STANDARD
  9
$DIMTXSTY
  7
STANDARD
  9
$CMLSTYLE
  2
STANDARD
  9
$PEXTMAX
 10
50
 20
50
 30
50
  9
$PEXTMIN
 10
0
 20
0
 30
0
  9
$HANDSEED
  5
FFFF
  0
ENDSEC
  0
SECTION
  2
CLASSES
  0
CLASS
  1
ACDBDICTIONARYWDFLT
  2
AcDbDictionaryWithDefault
  3
ObjectDBX Classes
 90
        0
280
     0
281
     0
  0
CLASS
  1
XRECORD
  2
AcDbXrecord
  3
ObjectDBX Classes
 90
        0
280
     0
281
     0
  0
CLASS
  1
LWPOLYLINE
  2
AcDbPolyline
  3
ObjectDBX Classes
 90
        0
280
     0
281
     1
  0
ENDSEC
  0
SECTION
  2
TABLES
  0
TABLE
  2
VPORT
  5
20
330
0
100
AcDbSymbolTable
 70
     1
  0
VPORT
  5
21
330
20
100
AcDbSymbolTableRecord
100
AcDbViewportTableRecord
  2
*ACTIVE
 70
     0
  0
ENDTAB
  0
TABLE
  2
LTYPE
  5
22
330
0
100
AcDbSymbolTable
 70
     1
  0
LTYPE
  5
23
330
21
100
AcDbSymbolTableRecord
100
AcDbLinetypeTableRecord
  2
BYBLOCK
 70
     0
  3

 72
    65
 73
     0
 40
0.0
  0
LTYPE
  5
24
330
21
100
AcDbSymbolTableRecord
100
AcDbLinetypeTableRecord
  2
BYLAYER
 70
     0
  3

 72
    65
 73
     0
 40
0.0
  0
LTYPE
  5
25
330
21
100
AcDbSymbolTableRecord
100
AcDbLinetypeTableRecord
  2
CONTINUOUS
 70
     0
  3
Solid line
 72
    65
 73
     0
 40
0.0
  0
ENDTAB
  0
TABLE
  2
LAYER
  5
A3C
330
0
100
AcDbSymbolTable
 70
5
  0
LAYER
  5
A3D
330
A3C
100
AcDbSymbolTableRecord
100
AcDbLayerTableRecord
  2
0
 70
   0
 62
   7
  6
CONTINUOUS
  0
LAYER
  5
A3E
330
A3C
100
AcDbSymbolTableRecord
100
AcDbLayerTableRecord
  2
View
 70
    0
 62
    7
  6
CONTINUOUS
  0
LAYER
  5
A3F
330
A3C
100
AcDbSymbolTableRecord
100
AcDbLayerTableRecord
  2
Dimension
 70
    0
 62
    7
  6
CONTINUOUS
  0
LAYER
  5
A40
330
A3C
100
AcDbSymbolTableRecord
100
AcDbLayerTableRecord
  2
Dimension001
 70
    0
 62
    7
  6
CONTINUOUS
  0
LAYER
  5
A41
330
A3C
100
AcDbSymbolTableRecord
100
AcDbLayerTableRecord
  2
Annotation
 70
    0
 62
    7
  6
CONTINUOUS
  0
ENDTAB
  0
TABLE
  2
STYLE
  5
70
330
0
100
AcDbSymbolTable
 70
     2
  0
STYLE
  5
71
330
70
100
AcDbSymbolTableRecord
100
AcDbTextStyleTableRecord
  2
STANDARD
 70
     0
 40
0.0
 41
1.0
 50
0.0
 71
     0
 42
2.5
  3
arial.ttf
  4

  0
STYLE
  5
72
330
70
100
AcDbSymbolTableRecord
100
AcDbTextStyleTableRecord
  2
ANNOTATIVE
 70
     0
 40
0.0
 41
1.0
 50
0.0
 71
     0
 42
2.5
  3
arial.ttf
  4

  0
ENDTAB
  0
TABLE
  2
VIEW
  5
73
330
0
100
AcDbSymbolTable
 70
     0
  0
ENDTAB
  0
TABLE
  2
UCS
  5
74
330
0
100
AcDbSymbolTable
 70
     0
  0
ENDTAB
  0
TABLE
  2
APPID
  5
75
330
0
100
AcDbSymbolTable
 70
     2
  0
APPID
  5
76
330
75
100
AcDbSymbolTableRecord
100
AcDbRegAppTableRecord
  2
ACAD
 70
     0
  0
APPID
  5
77
330
75
100
AcDbSymbolTableRecord
100
AcDbRegAppTableRecord
  2
ACADANNOTATIVE
 70
     0
  0
ENDTAB
  0
TABLE
  2
DIMSTYLE
  5
78
330
0
100
AcDbSymbolTable
 70
     2
  0
DIMSTYLE
105
79
330
78
100
AcDbSymbolTableRecord
100
AcDbDimStyleTableRecord
  2
STANDARD
 70
     0
  3

  4

  5

  6

  7

 40
0.0
 41
2.5
 42
0.625
 43
3.75
 44
1.25
 45
0.0
 46
0.0
 47
0.0
 48
0.0
140
2.5
141
2.5
142
0.0
143
0.03937007874016
144
1.0
145
0.0
146
1.0
147
0.625
 71
     0
 72
     0
 73
     0
 74
     0
 75
     0
 76
     0
 77
     1
 78
     8
170
     0
171
     3
172
     1
173
     0
174
     0
175
     0
176
     0
177
     0
178
     0
270
     2
271
     2
272
     2
273
     2
274
     3
340
71
275
     0
280
     0
281
     0
282
     0
283
     0
284
     8
285
     0
286
     0
287
     3
288
     0
  0
ENDTAB
  0
TABLE
  2
BLOCK_RECORD
  5
A01
330
0
100
AcDbSymbolTable
  70
5
  0
BLOCK_RECORD
  5
A02
330
A01
100
AcDbSymbolTableRecord
100
AcDbBlockTableRecord
  2
*MODEL_SPACE
  0
BLOCK_RECORD
  5
A03
330
A01
100
AcDbSymbolTableRecord
100
AcDbBlockTableRecord
  2
*PAPER_SPACE
  0
BLOCK_RECORD
  5
A28
330
A01
100
AcDbSymbolTableRecord
100
AcDbBlockTableRecord
  2
*Dimension
  0
BLOCK_RECORD
  5
A32
330
A01
100
AcDbSymbolTableRecord
100
AcDbBlockTableRecord
  2
*Dimension001
  0
ENDTAB
  0
ENDSEC
  0
SECTION
  2
BLOCKS
  0
BLOCK
  5
A04
330
A02
100
AcDbEntity
  8
0
100
AcDbBlockBegin
  2
*MODEL_SPACE
 70
   0
 10
0
 20
0
 30
0
  3
*MODEL_SPACE
  1
 
  0
ENDBLK
  5
A05
330
A02
100
AcDbEntity
  8
0
100
AcDbBlockEnd
  0
BLOCK
  5
A06
330
A03
100
AcDbEntity
 67
1
  8
0
100
AcDbBlockBegin
  2
*PAPER_SPACE
 70
   0
 10
0
 20
0
 30
0
  3
*PAPER_SPACE
  1
 
  0
ENDBLK
  5
A07
330
A03
100
AcDbEntity
 67
    1
  8
0
100
AcDbBlockEnd
  0
BLOCK
  5
A29
330
A28
100
AcDbEntity
  8
Dimension
100
AcDbBlockBegin
  2
*Dimension
 70
   1
 10
0
 20
0
 30
0
  3
*Dimension
  1
 
  0
LINE
  5
A2A
330
A28
100
AcDbEntity
  8
Dimension
100
AcDbLine
 10
87.5649
 20
140.237
 30
0
 11
87.5649
 21
165.594
 31
0
  0
LINE
  5
A2B
330
A28
100
AcDbEntity
  8
Dimension
100
AcDbLine
 10
209.565
 20
140.237
 30
0
 11
209.565
 21
165.594
 31
0
  0
LINE
  5
A2C
330
A28
100
AcDbEntity
  8
Dimension
100
AcDbLine
 10
209.565
 20
165.594
 30
0
 11
87.5649
 21
165.594
 31
0
  0
TEXT
  5
A2D
330
A28
100
AcDbEntity
  8
Dimension
100
AcDbText
 10
146.159
 20
160.594
 30
0
 40
3.5
  1
 mm
  7
STANDARD
 72
1
 11
146.159
 21
165.594
 31
0
100
AcDbText
  0
SOLID
  5
A2E
330
A28
100
AcDbEntity
  8
0
 62
     0
100
AcDbTrace
 10
214.565
 20
166.011
 30
0
 11
214.565
 21
165.178
 31
0
 12
209.565
 22
165.594
 32
0
 13
209.565
 23
165.594
 33
0
  0
SOLID
  5
A2F
330
A28
100
AcDbEntity
  8
0
 62
     0
100
AcDbTrace
 10
82.5649
 20
166.011
 30
0
 11
82.5649
 21
165.178
 31
0
 12
87.5649
 22
165.594
 32
0
 13
87.5649
 23
165.594
 33
0
  0
ENDBLK
  5
A30
330
A28
100
AcDbEntity
  8
Dimension
100
AcDbBlockEnd
  0
BLOCK
  5
A33
330
A32
100
AcDbEntity
  8
Dimension001
100
AcDbBlockBegin
  2
*Dimension001
 70
   1
 10
0
 20
0
 30
0
  3
*Dimension001
  1
 
  0
LINE
  5
A34
330
A32
100
AcDbEntity
  8
Dimension001
100
AcDbLine
 10
94.0149
 20
146.687
 30
0
 11
39.5093
 21
146.687
 31
0
  0
LINE
  5
A35
330
A32
100
AcDbEntity
  8
Dimension001
100
AcDbLine
 10
94.0149
 20
86.6866
 30
0
 11
39.5093
 21
86.6866
 31
0
  0
LINE
  5
A36
330
A32
100
AcDbEntity
  8
Dimension001
100
AcDbLine
 10
39.5093
 20
86.6866
 30
0
 11
39.5093
 21
146.687
 31
0
  0
TEXT
  5
A37
330
A32
100
AcDbEntity
  8
Dimension001
100
AcDbText
 10
44.5093
 20
114.581
 30
0
 40
3.5
  1
 mm
  7
STANDARD
 72
1
 11
39.5093
 21
114.581
 31
0
100
AcDbText
  0
SOLID
  5
A38
330
A32
100
AcDbEntity
  8
0
 62
     0
100
AcDbTrace
 10
39.0926
 20
81.6866
 30
0
 11
39.926
 21
81.6866
 31
0
 12
39.5093
 22
86.6866
 32
0
 13
39.5093
 23
86.6866
 33
0
  0
SOLID
  5
A39
330
A32
100
AcDbEntity
  8
0
 62
     0
100
AcDbTrace
 10
39.0926
 20
151.687
 30
0
 11
39.926
 21
151.687
 31
0
 12
39.5093
 22
146.687
 32
0
 13
39.5093
 23
146.687
 33
0
  0
ENDBLK
  5
A3A
330
A32
100
AcDbEntity
  8
Dimension001
100
AcDbBlockEnd
  0
ENDSEC
  0
SECTION
  2
ENTITIES
  0
ARC
  5
A08
330
A02
100
AcDbEntity
  8
View
100
AcDbCircle
 10
94.0149
 20
140.237
 30
0
 40
6.45
100
AcDbArc
 50
90
 51
-180
  0
LINE
  5
A09
330
A02
100
AcDbEntity
  8
View
100
AcDbLine
 10
94.0149
 20
146.687
 30
0
 11
203.115
 21
146.687
 31
0
  0
ARC
  5
A0A
330
A02
100
AcDbEntity
  8
View
100
AcDbCircle
 10
203.115
 20
140.237
 30
0
 40
6.45
100
AcDbArc
 50
-0.00025046
 51
90
  0
LINE
  5
A0B
330
A02
100
AcDbEntity
  8
View
100
AcDbLine
 10
209.565
 20
93.1366
 30
0
 11
209.565
 21
140.237
 31
0
  0
ARC
  5
A0C
330
A02
100
AcDbEntity
  8
View
100
AcDbCircle
 10
203.115
 20
93.1366
 30
0
 40
6.45
100
AcDbArc
 50
-90
 51
0.000253049
  0
LINE
  5
A0D
330
A02
100
AcDbEntity
  8
View
100
AcDbLine
 10
94.0149
 20
86.6866
 30
0
 11
203.115
 21
86.6866
 31
0
  0
ARC
  5
A0E
330
A02
100
AcDbEntity
  8
View
100
AcDbCircle
 10
94.0149
 20
93.1366
 30
0
 40
6.45
100
AcDbArc
 50
180
 51
-90
  0
LINE
  5
A0F
330
A02
100
AcDbEntity
  8
View
100
AcDbLine
 10
87.5649
 20
140.237
 30
0
 11
87.5649
 21
93.1366
 31
0
  0
ARC
  5
A10
330
A02
100
AcDbEntity
  8
View
100
AcDbCircle
 10
117.565
 20
116.687
 30
0
 40
19.2
100
AcDbArc
 50
90
 51
-90
  0
LINE
  5
A11
330
A02
100
AcDbEntity
  8
View
100
AcDbLine
 10
117.565
 20
97.4866
 30
0
 11
122.565
 21
97.4866
 31
0
  0
ARC
  5
A12
330
A02
100
AcDbEntity
  8
View
100
AcDbCircle
 10
122.565
 20
116.687
 30
0
 40
19.2
100
AcDbArc
 50
-90
 51
90
  0
LINE
  5
A13
330
A02
100
AcDbEntity
  8
View
100
AcDbLine
 10
117.565
 20
135.887
 30
0
 11
122.565
 21
135.887
 31
0
  0
CIRCLE
  5
A14
330
A02
100
AcDbEntity
  8
View
100
AcDbCircle
 10
179.565
 20
116.687
 40
16
  0
ARC
  5
A15
330
A02
100
AcDbEntity
  8
View
100
AcDbCircle
 10
94.0149
 20
93.1366
 30
0
 40
2.75
100
AcDbArc
 50
90
 51
-90
  0
LINE
  5
A16
330
A02
100
AcDbEntity
  8
View
100
AcDbLine
 10
94.0149
 20
90.3866
 30
0
 11
99.0149
 21
90.3866
 31
0
  0
ARC
  5
A17
330
A02
100
AcDbEntity
  8
View
100
AcDbCircle
 10
99.0149
 20
93.1366
 30
0
 40
2.75
100
AcDbArc
 50
-90
 51
90
  0
LINE
  5
A18
330
A02
100
AcDbEntity
  8
View
100
AcDbLine
 10
94.0149
 20
95.8866
 30
0
 11
99.0149
 21
95.8866
 31
0
  0
ARC
  5
A19
330
A02
100
AcDbEntity
  8
View
100
AcDbCircle
 10
94.0149
 20
140.237
 30
0
 40
2.75
100
AcDbArc
 50
90
 51
-90
  0
LINE
  5
A1A
330
A02
100
AcDbEntity
  8
View
100
AcDbLine
 10
94.0149
 20
137.487
 30
0
 11
99.0149
 21
137.487
 31
0
  0
ARC
  5
A1B
330
A02
100
AcDbEntity
  8
View
100
AcDbCircle
 10
99.0149
 20
140.237
 30
0
 40
2.75
100
AcDbArc
 50
-90
 51
90
  0
LINE
  5
A1C
330
A02
100
AcDbEntity
  8
View
100
AcDbLine
 10
94.0149
 20
142.987
 30
0
 11
99.0149
 21
142.987
 31
0
  0
ARC
  5
A1D
330
A02
100
AcDbEntity
  8
View
100
AcDbCircle
 10
141.115
 20
93.1366
 30
0
 40
2.75
100
AcDbArc
 50
90
 51
-90
  0
LINE
  5
A1E
330
A02
100
AcDbEntity
  8
View
100
AcDbLine
 10
141.115
 20
90.3866
 30
0
 11
146.115
 21
90.3866
 31
0
  0
ARC
  5
A1F
330
A02
100
AcDbEntity
  8
View
100
AcDbCircle
 10
146.115
 20
93.1366
 30
0
 40
2.75
100
AcDbArc
 50
-90
 51
90
  0
LINE
  5
A20
330
A02
100
AcDbEntity
  8
View
100
AcDbLine
 10
141.115
 20
95.8866
 30
0
 11
146.115
 21
95.8866
 31
0
  0
ARC
  5
A21
330
A02
100
AcDbEntity
  8
View
100
AcDbCircle
 10
141.115
 20
140.237
 30
0
 40
2.75
100
AcDbArc
 50
90
 51
-90
  0
LINE
  5
A22
330
A02
100
AcDbEntity
  8
View
100
AcDbLine
 10
141.115
 20
137.487
 30
0
 11
146.115
 21
137.487
 31
0
  0
ARC
  5
A23
330
A02
100
AcDbEntity
  8
View
100
AcDbCircle
 10
146.115
 20
140.237
 30
0
 40
2.75
100
AcDbArc
 50
-90
 51
90
  0
LINE
  5
A24
330
A02
100
AcDbEntity
  8
View
100
AcDbLine
 10
141.115
 20
142.987
 30
0
 11
146.115
 21
142.987
 31
0
  0
CIRCLE
  5
A25
330
A02
100
AcDbEntity
  8
View
100
AcDbCircle
 10
203.115
 20
93.1366
 40
2.75
  0
CIRCLE
  5
A26
330
A02
100
AcDbEntity
  8
View
100
AcDbCircle
 10
203.115
 20
140.237
 40
2.75
  0
DIMENSION
  5
A27
330
A02
100
AcDbEntity
  8
Dimension
100
AcDbDimension
  2
*Dimension
 10
146.159
 20
165.594
 30
0
 11
146.159
 21
160.594
 31
0
 70
32
  1
 mm
  3
STANDARD
100
AcDbAlignedDimension
 13
209.565
 23
140.237
 33
0
 14
87.5649
 24
140.237
 34
0
100
AcDbRotatedDimension
  0
DIMENSION
  5
A31
330
A02
100
AcDbEntity
  8
Dimension001
100
AcDbDimension
  2
*Dimension001
 10
39.5093
 20
114.581
 30
0
 11
44.5093
 21
114.581
 31
0
 70
32
  1
 mm
  3
STANDARD
100
AcDbAlignedDimension
 13
94.0149
 23
86.6866
 33
0
 14
94.0149
 24
146.687
 34
0
 50
90
100
AcDbRotatedDimension
  0
TEXT
  5
A3B
330
A02
100
AcDbEntity
  8
Annotation
100
AcDbText
 10
205.039
 20
77.9335
 30
0
 40
5
  1
cerny plech tl. 3mm
  7
STANDARD
 72
1
 11
205.039
 21
77.9335
 31
0
100
AcDbText
  0
ENDSEC
  0
SECTION
  2
OBJECTS
  0
DICTIONARY
  5
F000
330
0
100
AcDbDictionary
  3
ACAD_GROUP
350
F001
  0
DICTIONARY
  5
F001
330
F000
100
AcDbDictionary
  0
ENDSEC
  0
EOF