999
FreeCAD v0.18 4 (GitTag)
  0
SECTION
  2
HEADER
  9
$ACADVER
  1
AC1014
  9
$ACADMAINTVER
 70
     9
  9
$DWGCODEPAGE
  3
ANSI_1252
  9
$TEXTSTYLE
  7
STANDARD
  9
$DIMSTYLE
  2
STANDARD
  9
$DIMTXSTY
  7
STANDARD
  9
$CMLSTYLE
  2
STANDARD
  9
$HANDSEED
  5
FFF
  0
ENDSEC
  0
SECTION
  2
CLASSES
  0
CLASS
  1
ACDBDICTIONARYWDFLT
  2
AcDbDictionaryWithDefault
  3
ObjectDBX Classes
 90
        0
280
     0
281
     0
  0
CLASS
  1
XRECORD
  2
AcDbXrecord
  3
ObjectDBX Classes
 90
        0
280
     0
281
     0
  0
CLASS
  1
LWPOLYLINE
  2
AcDbPolyline
  3
ObjectDBX Classes
 90
        0
280
     0
281
     1
  0
ENDSEC
  0
SECTION
  2
TABLES
  0
TABLE
  2
VPORT
  5
20
330
0
100
AcDbSymbolTable
 70
     1
  0
VPORT
  5
21
330
20
100
AcDbSymbolTableRecord
100
AcDbViewportTableRecord
  2
*ACTIVE
 70
     0
  0
ENDTAB
  0
TABLE
  2
LTYPE
  5
22
330
0
100
AcDbSymbolTable
 70
     1
  0
LTYPE
  5
23
330
21
100
AcDbSymbolTableRecord
100
AcDbLinetypeTableRecord
  2
BYBLOCK
 70
     0
  3

 72
    65
 73
     0
 40
0.0
  0
LTYPE
  5
24
330
21
100
AcDbSymbolTableRecord
100
AcDbLinetypeTableRecord
  2
BYLAYER
 70
     0
  3

 72
    65
 73
     0
 40
0.0
  0
LTYPE
  5
25
330
21
100
AcDbSymbolTableRecord
100
AcDbLinetypeTableRecord
  2
CONTINUOUS
 70
     0
  3
Solid line
 72
    65
 73
     0
 40
0.0
  0
ENDTAB
  0
TABLE
  2
LAYER
  5
31
330
0
100
AcDbSymbolTable
 70
5
  0
LAYER
  5
32
330
31
100
AcDbSymbolTableRecord
100
AcDbLayerTableRecord
  2
0
 70
   0
 62
   7
  6
CONTINUOUS
  0
LAYER
  5
33
330
31
100
AcDbSymbolTableRecord
100
AcDbLayerTableRecord
  2
View
 70
    0
 62
    7
  6
CONTINUOUS
  0
LAYER
  5
34
330
31
100
AcDbSymbolTableRecord
100
AcDbLayerTableRecord
  2
Dimension
 70
    0
 62
    7
  6
CONTINUOUS
  0
LAYER
  5
35
330
31
100
AcDbSymbolTableRecord
100
AcDbLayerTableRecord
  2
Dimension001
 70
    0
 62
    7
  6
CONTINUOUS
  0
LAYER
  5
36
330
31
100
AcDbSymbolTableRecord
100
AcDbLayerTableRecord
  2
Annotation
 70
    0
 62
    7
  6
CONTINUOUS
  0
ENDTAB
  0
TABLE
  2
STYLE
  5
60
330
0
100
AcDbSymbolTable
 70
     2
  0
STYLE
  5
61
330
60
100
AcDbSymbolTableRecord
100
AcDbTextStyleTableRecord
  2
STANDARD
 70
     0
 40
0.0
 41
1.0
 50
0.0
 71
     0
 42
2.5
  3
arial.ttf
  4

  0
STYLE
  5
62
330
60
100
AcDbSymbolTableRecord
100
AcDbTextStyleTableRecord
  2
ANNOTATIVE
 70
     0
 40
0.0
 41
1.0
 50
0.0
 71
     0
 42
2.5
  3
arial.ttf
  4

  0
ENDTAB
  0
TABLE
  2
VIEW
  5
63
330
0
100
AcDbSymbolTable
 70
     0
  0
ENDTAB
  0
TABLE
  2
UCS
  5
64
330
0
100
AcDbSymbolTable
 70
     0
  0
ENDTAB
  0
TABLE
  2
APPID
  5
65
330
0
100
AcDbSymbolTable
 70
     2
  0
APPID
  5
66
330
65
100
AcDbSymbolTableRecord
100
AcDbRegAppTableRecord
  2
ACAD
 70
     0
  0
APPID
  5
67
330
65
100
AcDbSymbolTableRecord
100
AcDbRegAppTableRecord
  2
ACADANNOTATIVE
 70
     0
  0
ENDTAB
  0
TABLE
  2
DIMSTYLE
  5
68
330
0
100
AcDbSymbolTable
 70
     2
  0
DIMSTYLE
105
69
330
68
100
AcDbSymbolTableRecord
100
AcDbDimStyleTableRecord
  2
STANDARD
 70
     0
  3

  4

  5

  6

  7

 40
0.0
 41
2.5
 42
0.625
 43
3.75
 44
1.25
 45
0.0
 46
0.0
 47
0.0
 48
0.0
140
2.5
141
2.5
142
0.0
143
0.03937007874016
144
1.0
145
0.0
146
1.0
147
0.625
 71
     0
 72
     0
 73
     0
 74
     0
 75
     0
 76
     0
 77
     1
 78
     8
170
     0
171
     3
172
     1
173
     0
174
     0
175
     0
176
     0
177
     0
178
     0
270
     2
271
     2
272
     2
273
     2
274
     3
340
61
275
     0
280
     0
281
     0
282
     0
283
     0
284
     8
285
     0
286
     0
287
     3
288
     0
  0
ENDTAB
  0
TABLE
  2
BLOCK_RECORD
  5
111
330
0
100
AcDbSymbolTable
  70
5
  0
BLOCK_RECORD
  5
112
330
111
100
AcDbSymbolTableRecord
100
AcDbBlockTableRecord
  2
*MODEL_SPACE
  0
BLOCK_RECORD
  5
113
330
111
100
AcDbSymbolTableRecord
100
AcDbBlockTableRecord
  2
*PAPER_SPACE
  0
BLOCK_RECORD
  5
114
330
111
100
AcDbSymbolTableRecord
100
AcDbBlockTableRecord
  2
*Dimension
  0
BLOCK_RECORD
  5
115
330
111
100
AcDbSymbolTableRecord
100
AcDbBlockTableRecord
  2
*Dimension001
  0
ENDTAB
  0
ENDSEC
  0
SECTION
  2
BLOCKS
  0
BLOCK
  5
211
330
112
100
AcDbEntity
  8
0
100
AcDbBlockBegin
  2
*MODEL_SPACE
 70
   0
 10
0
 20
0
 30
0
  3
*MODEL_SPACE
  1
 
  0
ENDBLK
  5
212
330
112
100
AcDbEntity
  8
0
100
AcDbBlockEnd
  0
BLOCK
  5
213
330
113
100
AcDbEntity
 67
1
  8
0
100
AcDbBlockBegin
  2
*PAPER_SPACE
 70
   0
 10
0
 20
0
 30
0
  3
*PAPER_SPACE
  1
 
  0
ENDBLK
  5
214
330
113
100
AcDbEntity
 67
    1
  8
0
100
AcDbBlockEnd
  0
BLOCK
  5
215
330
114
100
AcDbEntity
  8
Dimension
100
AcDbBlockBegin
  2
*Dimension
 70
   1
 10
0
 20
0
 30
0
  3
*Dimension
  1
 
  0
LINE
  5
216
330
114
100
AcDbEntity
  8
Dimension
100
AcDbLine
 10
61.8149
 20
93.1366
 30
0
 11
61.8149
 21
165.594
 31
0
  0
LINE
  5
217
330
114
100
AcDbEntity
  8
Dimension
100
AcDbLine
 10
235.315
 20
93.1366
 30
0
 11
235.315
 21
165.594
 31
0
  0
LINE
  5
218
330
114
100
AcDbEntity
  8
Dimension
100
AcDbLine
 10
235.315
 20
165.594
 30
0
 11
61.8149
 21
165.594
 31
0
  0
TEXT
  5
219
330
114
100
AcDbEntity
  8
Dimension
100
AcDbText
 10
146.159
 20
160.594
 30
0
 40
3.5
  1
173,50 mm
  7
STANDARD
 72
1
 11
146.159
 21
165.594
 31
0
100
AcDbText
  0
SOLID
  5
21A
330
114
100
AcDbEntity
  8
0
 62
     0
100
AcDbTrace
 10
230.315
 20
165.178
 30
0
 11
230.315
 21
166.011
 31
0
 12
235.315
 22
165.594
 32
0
 13
235.315
 23
165.594
 33
0
  0
SOLID
  5
21B
330
114
100
AcDbEntity
  8
0
 62
     0
100
AcDbTrace
 10
66.8149
 20
165.178
 30
0
 11
66.8149
 21
166.011
 31
0
 12
61.8149
 22
165.594
 32
0
 13
61.8149
 23
165.594
 33
0
  0
ENDBLK
  5
21C
330
114
100
AcDbEntity
  8
Dimension
100
AcDbBlockEnd
  0
BLOCK
  5
21D
330
115
100
AcDbEntity
  8
Dimension001
100
AcDbBlockBegin
  2
*Dimension001
 70
   1
 10
0
 20
0
 30
0
  3
*Dimension001
  1
 
  0
LINE
  5
21E
330
115
100
AcDbEntity
  8
Dimension001
100
AcDbLine
 10
68.2649
 20
146.687
 30
0
 11
39.5093
 21
146.687
 31
0
  0
LINE
  5
21F
330
115
100
AcDbEntity
  8
Dimension001
100
AcDbLine
 10
68.2649
 20
86.6866
 30
0
 11
39.5093
 21
86.6866
 31
0
  0
LINE
  5
220
330
115
100
AcDbEntity
  8
Dimension001
100
AcDbLine
 10
39.5093
 20
86.6866
 30
0
 11
39.5093
 21
146.687
 31
0
  0
TEXT
  5
221
330
115
100
AcDbEntity
  8
Dimension001
100
AcDbText
 10
44.5093
 20
114.581
 30
0
 40
3.5
  1
60,00 mm
  7
STANDARD
 72
1
 11
39.5093
 21
114.581
 31
0
100
AcDbText
  0
SOLID
  5
222
330
115
100
AcDbEntity
  8
0
 62
     0
100
AcDbTrace
 10
39.926
 20
91.6866
 30
0
 11
39.0926
 21
91.6866
 31
0
 12
39.5093
 22
86.6866
 32
0
 13
39.5093
 23
86.6866
 33
0
  0
SOLID
  5
223
330
115
100
AcDbEntity
  8
0
 62
     0
100
AcDbTrace
 10
39.926
 20
141.687
 30
0
 11
39.0926
 21
141.687
 31
0
 12
39.5093
 22
146.687
 32
0
 13
39.5093
 23
146.687
 33
0
  0
ENDBLK
  5
224
330
115
100
AcDbEntity
  8
Dimension001
100
AcDbBlockEnd
  0
ENDSEC
  0
SECTION
  2
ENTITIES
  0
ARC
  5
301
330
112
100
AcDbEntity
  8
View
100
AcDbCircle
 10
68.2649
 20
140.237
 30
0
 40
6.45
100
AcDbArc
 50
90
 51
180
  0
LINE
  5
302
330
112
100
AcDbEntity
  8
View
100
AcDbLine
 10
68.2649
 20
146.687
 30
0
 11
228.865
 21
146.687
 31
0
  0
ARC
  5
303
330
112
100
AcDbEntity
  8
View
100
AcDbCircle
 10
228.865
 20
140.237
 30
0
 40
6.45
100
AcDbArc
 50
-2.08247e-06
 51
90
  0
LINE
  5
304
330
112
100
AcDbEntity
  8
View
100
AcDbLine
 10
235.315
 20
93.1366
 30
0
 11
235.315
 21
140.237
 31
0
  0
ARC
  5
305
330
112
100
AcDbEntity
  8
View
100
AcDbCircle
 10
228.865
 20
93.1366
 30
0
 40
6.45
100
AcDbArc
 50
-90
 51
-1.74338e-06
  0
LINE
  5
306
330
112
100
AcDbEntity
  8
View
100
AcDbLine
 10
68.2649
 20
86.6866
 30
0
 11
228.865
 21
86.6866
 31
0
  0
ARC
  5
307
330
112
100
AcDbEntity
  8
View
100
AcDbCircle
 10
68.2649
 20
93.1366
 30
0
 40
6.45
100
AcDbArc
 50
-180
 51
-90
  0
LINE
  5
308
330
112
100
AcDbEntity
  8
View
100
AcDbLine
 10
61.8149
 20
140.237
 30
0
 11
61.8149
 21
93.1366
 31
0
  0
ARC
  5
309
330
112
100
AcDbEntity
  8
View
100
AcDbCircle
 10
91.8149
 20
116.687
 30
0
 40
19.2
100
AcDbArc
 50
90
 51
-90
  0
LINE
  5
30A
330
112
100
AcDbEntity
  8
View
100
AcDbLine
 10
91.8149
 20
97.4866
 30
0
 11
96.8149
 21
97.4866
 31
0
  0
ARC
  5
30B
330
112
100
AcDbEntity
  8
View
100
AcDbCircle
 10
96.8149
 20
116.687
 30
0
 40
19.2
100
AcDbArc
 50
-90
 51
90
  0
LINE
  5
30C
330
112
100
AcDbEntity
  8
View
100
AcDbLine
 10
91.8149
 20
135.887
 30
0
 11
96.8149
 21
135.887
 31
0
  0
CIRCLE
  5
30D
330
112
100
AcDbEntity
  8
View
100
AcDbCircle
 10
205.315
 20
116.687
 40
10
  0
ARC
  5
30E
330
112
100
AcDbEntity
  8
View
100
AcDbCircle
 10
68.2649
 20
140.237
 30
0
 40
2.75
100
AcDbArc
 50
90
 51
-90
  0
LINE
  5
30F
330
112
100
AcDbEntity
  8
View
100
AcDbLine
 10
68.2649
 20
137.487
 30
0
 11
73.2649
 21
137.487
 31
0
  0
ARC
  5
310
330
112
100
AcDbEntity
  8
View
100
AcDbCircle
 10
73.2649
 20
140.237
 30
0
 40
2.75
100
AcDbArc
 50
-90
 51
90
  0
LINE
  5
311
330
112
100
AcDbEntity
  8
View
100
AcDbLine
 10
68.2649
 20
142.987
 30
0
 11
73.2649
 21
142.987
 31
0
  0
ARC
  5
312
330
112
100
AcDbEntity
  8
View
100
AcDbCircle
 10
68.2649
 20
93.1366
 30
0
 40
2.75
100
AcDbArc
 50
90
 51
-90
  0
LINE
  5
313
330
112
100
AcDbEntity
  8
View
100
AcDbLine
 10
68.2649
 20
90.3866
 30
0
 11
73.2649
 21
90.3866
 31
0
  0
ARC
  5
314
330
112
100
AcDbEntity
  8
View
100
AcDbCircle
 10
73.2649
 20
93.1366
 30
0
 40
2.75
100
AcDbArc
 50
-90
 51
90
  0
LINE
  5
315
330
112
100
AcDbEntity
  8
View
100
AcDbLine
 10
68.2649
 20
95.8866
 30
0
 11
73.2649
 21
95.8866
 31
0
  0
ARC
  5
316
330
112
100
AcDbEntity
  8
View
100
AcDbCircle
 10
115.365
 20
93.1366
 30
0
 40
2.75
100
AcDbArc
 50
90
 51
-90
  0
LINE
  5
317
330
112
100
AcDbEntity
  8
View
100
AcDbLine
 10
115.365
 20
90.3866
 30
0
 11
120.365
 21
90.3866
 31
0
  0
ARC
  5
318
330
112
100
AcDbEntity
  8
View
100
AcDbCircle
 10
120.365
 20
93.1366
 30
0
 40
2.75
100
AcDbArc
 50
-90
 51
90
  0
LINE
  5
319
330
112
100
AcDbEntity
  8
View
100
AcDbLine
 10
115.365
 20
95.8866
 30
0
 11
120.365
 21
95.8866
 31
0
  0
ARC
  5
31A
330
112
100
AcDbEntity
  8
View
100
AcDbCircle
 10
115.365
 20
140.237
 30
0
 40
2.75
100
AcDbArc
 50
90
 51
-90
  0
LINE
  5
31B
330
112
100
AcDbEntity
  8
View
100
AcDbLine
 10
115.365
 20
137.487
 30
0
 11
120.365
 21
137.487
 31
0
  0
ARC
  5
31C
330
112
100
AcDbEntity
  8
View
100
AcDbCircle
 10
120.365
 20
140.237
 30
0
 40
2.75
100
AcDbArc
 50
-90
 51
90
  0
LINE
  5
31D
330
112
100
AcDbEntity
  8
View
100
AcDbLine
 10
115.365
 20
142.987
 30
0
 11
120.365
 21
142.987
 31
0
  0
CIRCLE
  5
31E
330
112
100
AcDbEntity
  8
View
100
AcDbCircle
 10
228.865
 20
93.1366
 40
2.75
  0
CIRCLE
  5
31F
330
112
100
AcDbEntity
  8
View
100
AcDbCircle
 10
228.865
 20
140.237
 40
2.75
  0
CIRCLE
  5
320
330
112
100
AcDbEntity
  8
View
100
AcDbCircle
 10
224.315
 20
116.687
 40
2.55
  0
CIRCLE
  5
321
330
112
100
AcDbEntity
  8
View
100
AcDbCircle
 10
195.815
 20
100.232
 40
2.55
  0
CIRCLE
  5
322
330
112
100
AcDbEntity
  8
View
100
AcDbCircle
 10
195.815
 20
133.141
 40
2.55
  0
DIMENSION
  5
323
330
112
100
AcDbEntity
  8
Dimension
100
AcDbDimension
  2
*Dimension
 10
146.159
 20
165.594
 30
0
 11
146.159
 21
160.594
 31
0
 70
1
  1
173,50 mm
  3
STANDARD
100
AcDbAlignedDimension
 13
235.315
 23
93.1366
 33
0
 14
61.8149
 24
93.1366
 34
0
  0
DIMENSION
  5
324
330
112
100
AcDbEntity
  8
Dimension001
100
AcDbDimension
  2
*Dimension001
 10
39.5093
 20
114.581
 30
0
 11
44.5093
 21
114.581
 31
0
 70
1
  1
60,00 mm
  3
STANDARD
100
AcDbAlignedDimension
 13
68.2649
 23
86.6866
 33
0
 14
68.2649
 24
146.687
 34
0
  0
TEXT
  5
325
330
112
100
AcDbEntity
  8
Annotation
100
AcDbText
 10
205.039
 20
77.9335
 30
0
 40
5
  1
cerny plech tl. 3mm
  7
STANDARD
 72
1
 11
205.039
 21
77.9335
 31
0
100
AcDbText
  0
ENDSEC
  0
SECTION
  2
OBJECTS
  0
DICTIONARY
  5
500
330
0
100
AcDbDictionary
  3
ACAD_GROUP
350
501
  0
DICTIONARY
  5
501
330
500
100
AcDbDictionary
  0
ENDSEC
  0
EOF