M48
; DRILL file {KiCad (5.1.5)-3} date 10.7.2020 11:16:30
; FORMAT={-:-/ absolute / inch / decimal}
; #@! TF.CreationDate,2020-07-10T11:16:30+02:00
; #@! TF.GenerationSoftware,Kicad,Pcbnew,(5.1.5)-3
; #@! TF.FileFunction,Plated,1,2,PTH
FMAT,2
INCH
T1C0.0157
T2C0.0394
T3C0.0591
%
G90
G05
T1
X5.65Y-3.75
X5.65Y-3.8
X5.65Y-4.5
X5.65Y-4.55
X5.7Y-3.75
X5.7Y-4.55
X5.99Y-4.0
X6.097Y-4.225
X6.125Y-4.15
X6.125Y-4.3
X6.15Y-4.225
X6.175Y-4.15
X6.175Y-4.3
X6.205Y-4.225
X6.225Y-4.15
X6.225Y-4.3
X6.25Y-4.2
X6.25Y-4.25
X6.615Y-4.005
X6.675Y-3.995
X6.675Y-4.04
X6.675Y-4.085
X6.675Y-4.145
X6.705Y-4.195
X7.1Y-3.75
X7.1Y-4.55
X7.15Y-3.75
X7.15Y-3.8
X7.15Y-4.5
X7.15Y-4.55
T2
X7.05Y-4.125
X7.05Y-4.225
X7.05Y-4.325
X6.35Y-4.05
X6.35Y-4.15
X6.35Y-4.25
T3
X5.9Y-3.875
X6.1Y-3.875
X6.3Y-3.875
X6.5Y-3.875
X6.7Y-3.875
X6.9Y-3.875
X5.75Y-4.125
X5.75Y-4.325
X6.35Y-4.425
X6.5Y-4.425
X6.65Y-4.425
X6.8Y-4.425
T0
M30
